<?xml version="1.0" encoding="UTF-8" standalone="no"?>
<svg
   xmlns:dc="http://purl.org/dc/elements/1.1/"
   xmlns:cc="http://creativecommons.org/ns#"
   xmlns:rdf="http://www.w3.org/1999/02/22-rdf-syntax-ns#"
   xmlns:svg="http://www.w3.org/2000/svg"
   xmlns="http://www.w3.org/2000/svg"
   xmlns:xlink="http://www.w3.org/1999/xlink"
   xmlns:sodipodi="http://sodipodi.sourceforge.net/DTD/sodipodi-0.dtd"
   xmlns:inkscape="http://www.inkscape.org/namespaces/inkscape"
   sodipodi:docname="Logo.svg"
   inkscape:version="1.0 (4035a4fb49, 2020-05-01)"
   id="svg8"
   version="1.1"
   viewBox="0 0 66.145833 18.520834"
   height="70"
   width="250">
  <title
     id="title833">Themell Logo</title>
  <defs
     id="defs2">
    <linearGradient
       inkscape:collect="always"
       id="linearGradient851">
      <stop
         style="stop-color:#7ebab5;stop-opacity:0.69999999"
         offset="0"
         id="stop847" />
      <stop
         style="stop-color:#005a8c;stop-opacity:0.69999999"
         offset="1"
         id="stop849" />
    </linearGradient>
    <linearGradient
       id="linearGradient873"
       inkscape:collect="always">
      <stop
         id="stop869"
         offset="0"
         style="stop-color:#7ebab5;stop-opacity:1" />
      <stop
         id="stop871"
         offset="1"
         style="stop-color:#005a8c;stop-opacity:1" />
    </linearGradient>
    <linearGradient
       gradientUnits="userSpaceOnUse"
       y2="9.2604169"
       x2="66.145835"
       y1="9.2604169"
       x1="0"
       id="linearGradient875"
       xlink:href="#linearGradient873"
       inkscape:collect="always" />
    <linearGradient
       gradientTransform="translate(-0.00516764,0.00313206)"
       y2="9.2604169"
       x2="66.145835"
       y1="9.2604169"
       x1="0"
       gradientUnits="userSpaceOnUse"
       id="linearGradient877"
       xlink:href="#linearGradient873"
       inkscape:collect="always" />
    <linearGradient
       y2="9.2604169"
       x2="66.145835"
       y1="9.2604169"
       x1="0"
       gradientTransform="translate(0,0.01346734)"
       gradientUnits="userSpaceOnUse"
       id="linearGradient895"
       xlink:href="#linearGradient873"
       inkscape:collect="always" />
    <linearGradient
       gradientTransform="matrix(0.04702557,0,0,0.04702557,48.110692,0.84069312)"
       y2="9.2604169"
       x2="66.145835"
       y1="9.2604169"
       x1="0"
       gradientUnits="userSpaceOnUse"
       id="linearGradient903"
       xlink:href="#linearGradient873"
       inkscape:collect="always" />
    <linearGradient
       y2="179.04565"
       x2="383.51776"
       y1="179.04565"
       x1="-1023.0751"
       gradientTransform="matrix(0.04702557,0,0,0.04702557,48.110692,0.84069312)"
       gradientUnits="userSpaceOnUse"
       id="linearGradient921"
       xlink:href="#linearGradient851"
       inkscape:collect="always" />
  </defs>
  <sodipodi:namedview
     inkscape:snap-midpoints="true"
     inkscape:snap-smooth-nodes="true"
     inkscape:snap-intersection-paths="true"
     inkscape:object-paths="true"
     inkscape:window-maximized="1"
     inkscape:window-y="-8"
     inkscape:window-x="-8"
     inkscape:window-height="1017"
     inkscape:window-width="1920"
     units="px"
     showgrid="false"
     inkscape:document-rotation="0"
     inkscape:current-layer="g867"
     inkscape:document-units="px"
     inkscape:cy="23.830675"
     inkscape:cx="131.36282"
     inkscape:zoom="4"
     inkscape:pageshadow="2"
     inkscape:pageopacity="0.0"
     borderopacity="1.0"
     bordercolor="#666666"
     pagecolor="#ffffff"
     id="base">
    <sodipodi:guide
       position="0,18.520834"
       orientation="0,250"
       id="guide842" />
    <sodipodi:guide
       position="66.145834,18.520834"
       orientation="70,0"
       id="guide844" />
    <sodipodi:guide
       position="66.145834,0"
       orientation="0,-250"
       id="guide846" />
    <sodipodi:guide
       position="0,0"
       orientation="-70,0"
       id="guide848" />
  </sodipodi:namedview>
  <metadata
     id="metadata5">
    <rdf:RDF>
      <cc:Work
         rdf:about="">
        <dc:format>image/svg+xml</dc:format>
        <dc:type
           rdf:resource="http://purl.org/dc/dcmitype/StillImage" />
        <dc:title>Themell Logo</dc:title>
        <dc:date>01.01.2021</dc:date>
        <dc:creator>
          <cc:Agent>
            <dc:title>Simon Eller</dc:title>
          </cc:Agent>
        </dc:creator>
        <dc:rights>
          <cc:Agent>
            <dc:title>Copyright</dc:title>
          </cc:Agent>
        </dc:rights>
        <dc:publisher>
          <cc:Agent>
            <dc:title>Themell</dc:title>
          </cc:Agent>
        </dc:publisher>
        <dc:source>Icon made by Freepik from www.flaticon.com</dc:source>
      </cc:Work>
    </rdf:RDF>
  </metadata>
  <g
     id="layer1"
     inkscape:groupmode="layer"
     inkscape:label="Ebene 1">
    <g
       style="fill:url(#linearGradient875);fill-opacity:1"
       id="g867">
      <rect
         style="fill:#ffffff;stroke-width:1;stroke-linecap:square;paint-order:markers fill stroke"
         id="rect850"
         width="66.145836"
         height="18.520834"
         x="0"
         y="-3.8000002e-07" />
      <g
         style="font-style:normal;font-weight:normal;font-size:18.5208px;line-height:1.25;font-family:sans-serif;letter-spacing:0px;word-spacing:0px;fill:url(#linearGradient895);fill-opacity:1;stroke:none;stroke-width:0.264583"
         id="text837"
         aria-label="Themell" />
      <path
         d="m 64.558334,17.784373 h -0.865195 l -5.619395,-8.6562309 -0.610546,-0.940532 -1.86752,-2.876804 c -4.7e-5,-4.7e-5 -9.4e-5,-1.41e-4 -1.41e-4,-2.31e-4 l -0.513154,-0.790427 c -0.331349,-0.510474 -0.935124,-0.787272 -1.538146,-0.705399 l -0.75219,0.102189 c -0.227843,0.03094 -0.45611,-0.07369 -0.581342,-0.266594 L 50.787304,1.4576361 C 50.380383,0.83081812 49.53936,0.65192912 48.912448,1.0588501 c -0.626817,0.406921 -0.805706,1.247992 -0.398785,1.874809 l 1.423448,2.192662 c 0.125231,0.19295 0.127959,0.443978 0.0069,0.639561 l -0.399537,0.64544 c -0.578898,0.935265 0.06979,1.76345 0.07468,1.778969 l 0.608816,0.937851 c 0.676336,1.0418739 4.985571,7.6799119 5.619395,8.6562779 m 0.885416,-8.9946809 c 0.06593,0.10153 0.03522,0.23612 -0.06391,0.300499 -2.433014,1.5794359 -1.836623,1.1922649 -3.5775,2.3224089 -0.101296,0.06574 -0.23645,0.03471 -0.300406,-0.06382 l -1.670149,-2.5727299 0.731874,-0.47511 0.818592,1.260971 c 0.141456,0.217874 0.432739,0.279808 0.650519,0.138399 0.217827,-0.141408 0.279808,-0.432644 0.138399,-0.650518 l -0.818592,-1.260971 0.854426,-0.554679 0.862985,1.329301 c 0.141456,0.217874 0.432739,0.279808 0.650519,0.138399 0.217827,-0.141409 0.279808,-0.432645 0.138399,-0.650519 l -0.862985,-1.329347 0.777867,-0.504972 z m 4.624077,8.9946339 -2.247071,-3.461439 c -0.141456,-0.217827 -0.432645,-0.279902 -0.650519,-0.1384 -0.217827,0.141409 -0.279761,0.432645 -0.138352,0.650519 l 1.91464,2.949367 h -1.072347 l -4.198016,-6.466767 0.754401,-0.489735 0.749791,1.154973 c 0.141362,0.21778 0.432551,0.279855 0.650519,0.138399 0.217827,-0.141409 0.279761,-0.432645 0.138352,-0.650519 l -0.749792,-1.154973 c 0.646992,-0.4269069 0.709584,-0.4440249 0.843611,-0.5719839 l 5.219715,8.0405589 z m -7.94674,-5.481655 c 0.134825,-0.05502 0.760796,-0.469419 0.765545,-0.472616 l 3.865351,5.954271 H 56.968667 Z M 49.302581,2.4214931 c -0.124527,-0.191869 -0.06979,-0.449245 0.122034,-0.573819 0.191445,-0.124291 0.449057,-0.07016 0.573818,0.122081 l 1.423448,2.192709 c 0.322508,0.496742 0.910058,0.766204 1.496856,0.686447 l 0.75219,-0.102189 c 0.244115,-0.03334 0.488513,0.07891 0.622585,0.285498 l 0.257094,0.395964 c -0.433961,0.281737 -3.533436,2.293816 -3.941909,2.558999 l -0.257094,-0.396011 c -0.13412,-0.206588 -0.137036,-0.475439 -0.0074,-0.684895 l 0.399537,-0.64544 c 0.311693,-0.503561 0.304733,-1.149941 -0.01773,-1.646683 z M 43.036155,15.987674 V 3.0601556 q 0,-0.3518952 0.111124,-0.4815408 0.129646,-0.1481664 0.46302,-0.1666872 0.333375,-0.037042 0.92604,-0.037042 V 15.691341 q 0,0.148166 -0.07408,0.203729 -0.05556,0.05556 -0.370416,0.07408 -0.296333,0.01852 -1.055685,0.01852 z m -3.219437,0 V 3.0601556 q 0,-0.3518952 0.111125,-0.4815408 0.129645,-0.1481664 0.46302,-0.1666872 0.333374,-0.037042 0.92604,-0.037042 V 15.691341 q 0,0.148166 -0.07408,0.203729 -0.05556,0.05556 -0.370416,0.07408 -0.296333,0.01852 -1.055686,0.01852 z m -4.007438,0.185208 q -0.629707,0 -1.185331,-0.185208 -0.537103,-0.166687 -0.944561,-0.629707 -0.388937,-0.46302 -0.611186,-1.314977 -0.203729,-0.851957 -0.203729,-2.203975 0,-1.740956 0.277812,-2.7966411 0.277812,-1.0556856 0.740832,-1.5927888 0.46302,-0.5371032 1.055685,-0.7223112 0.592666,-0.185208 1.203852,-0.185208 1.166811,0 1.759476,0.740832 0.592666,0.740832 0.592666,2.2410168 0,0.6111863 -0.05556,1.2594143 -0.03704,0.648228 -0.166687,1.14829 -0.629707,0.129645 -1.40758,0.185208 -0.777874,0.05556 -1.481664,0.0926 -0.703791,0.01852 -1.166811,0.01852 -0.444499,0 -0.444499,0 l 0.01852,-1.222372 q 0,0 0.351895,0.01852 0.351895,0 0.851957,0 0.518582,-0.01852 1.037165,-0.05556 0.537103,-0.05556 0.907519,-0.166687 0.05556,-0.259291 0.07408,-0.555624 0.01852,-0.2963329 0.01852,-0.5556241 -0.01852,-1.0001232 -0.240771,-1.4075808 -0.203728,-0.4259784 -0.814915,-0.4259784 -0.314853,0 -0.611186,0.185208 -0.277812,0.1666872 -0.500062,0.6111864 -0.222249,0.4259784 -0.351895,1.1853312 -0.111125,0.7593527 -0.111125,1.9446837 0,0.870478 0.0926,1.444623 0.111125,0.574144 0.314854,0.888998 0.222249,0.314854 0.537103,0.46302 0.333374,0.129646 0.796394,0.129646 0.555624,0 1.092728,-0.148167 0.555623,-0.148166 1.000123,-0.425978 0.0926,0.222249 0.111124,0.518582 0.03704,0.277812 0.03704,0.500062 0,0.277812 -0.351895,0.518582 -0.351895,0.240771 -0.944561,0.370416 -0.574145,0.129646 -1.277935,0.129646 z M 22.56199,15.987674 V 7.1532523 q 0.611186,-0.277812 1.314976,-0.4444992 0.722312,-0.1666872 1.481664,-0.1666872 1.092728,0 1.592789,0.4815408 0.500062,0.4815408 0.629707,1.3705392 0.148167,0.8889984 0.148167,2.1298921 v 5.167303 q 0,0.148166 -0.07408,0.203729 -0.07408,0.05556 -0.388937,0.07408 -0.314854,0.01852 -1.037165,0.01852 V 9.0979363 q 0,-0.46302 -0.05556,-0.7223112 -0.03704,-0.277812 -0.240771,-0.3889368 -0.185208,-0.1296456 -0.611186,-0.1296456 -0.314854,0 -0.629707,0.074083 -0.296333,0.074083 -0.629708,0.2407704 v 7.5194449 q 0,0.148166 -0.07408,0.203729 -0.07408,0.05556 -0.388937,0.07408 -0.296332,0.01852 -1.037164,0.01852 z m 3.667118,0 V 7.9126051 q 0.166687,-0.4074576 0.648228,-0.7037904 0.500062,-0.3148536 1.14829,-0.4815408 0.666748,-0.185208 1.277935,-0.185208 0.92604,0 1.370539,0.3148536 0.444499,0.2963328 0.574145,0.8889984 0.129645,0.5741448 0.129645,1.4075808 v 6.5378423 q 0,0.148166 -0.07408,0.203729 -0.07408,0.05556 -0.388937,0.07408 -0.314853,0.01852 -1.037164,0.01852 V 9.1349779 q 0,-0.6667488 -0.185208,-0.9630816 -0.166688,-0.2963328 -0.722312,-0.2963328 -0.296332,0 -0.611186,0.074083 -0.314854,0.074083 -0.629707,0.277812 v 7.4638825 q 0,0.148166 -0.05556,0.203729 -0.05556,0.05556 -0.370416,0.07408 -0.314853,0.01852 -1.074206,0.01852 z m -7.674556,0.185208 q -0.629708,0 -1.185332,-0.185208 -0.537103,-0.166687 -0.94456,-0.629707 -0.388937,-0.46302 -0.611187,-1.314977 -0.203729,-0.851957 -0.203729,-2.203975 0,-1.740956 0.277812,-2.7966411 0.277812,-1.0556856 0.740832,-1.5927888 0.46302,-0.5371032 1.055686,-0.7223112 0.592666,-0.185208 1.203852,-0.185208 1.16681,0 1.759476,0.740832 0.592666,0.740832 0.592666,2.2410168 0,0.6111863 -0.05556,1.2594143 -0.03704,0.648228 -0.166687,1.14829 -0.629707,0.129645 -1.407581,0.185208 -0.777873,0.05556 -1.481664,0.0926 -0.70379,0.01852 -1.16681,0.01852 -0.444499,0 -0.444499,0 l 0.01852,-1.222372 q 0,0 0.351896,0.01852 0.351895,0 0.851956,0 0.518583,-0.01852 1.037165,-0.05556 0.537103,-0.05556 0.907519,-0.166687 0.05556,-0.259291 0.07408,-0.555624 0.01852,-0.2963329 0.01852,-0.5556241 -0.01852,-1.0001232 -0.24077,-1.4075808 -0.203729,-0.4259784 -0.814915,-0.4259784 -0.314854,0 -0.611187,0.185208 -0.277812,0.1666872 -0.500061,0.6111864 -0.22225,0.4259784 -0.351895,1.1853312 -0.111125,0.7593527 -0.111125,1.9446837 0,0.870478 0.0926,1.444623 0.111125,0.574144 0.314853,0.888998 0.22225,0.314854 0.537104,0.46302 0.333374,0.129646 0.796394,0.129646 0.555624,0 1.092727,-0.148167 0.555624,-0.148166 1.000123,-0.425978 0.0926,0.222249 0.111125,0.518582 0.03704,0.277812 0.03704,0.500062 0,0.277812 -0.351895,0.518582 -0.351896,0.240771 -0.944561,0.370416 -0.574145,0.129646 -1.277935,0.129646 z M 8.6528687,15.987674 V 3.0601556 q 0,-0.3518952 0.1111248,-0.4815408 Q 8.8936391,2.4304484 9.2084926,2.4119276 9.541867,2.374886 10.153053,2.374886 v 4.8894911 q 0.425979,-0.370416 0.981603,-0.5371032 0.574145,-0.185208 1.092727,-0.185208 0.796394,0 1.203852,0.2963328 0.425978,0.277812 0.574145,0.8149152 0.148166,0.5371032 0.148166,1.3334976 v 6.7045295 q 0,0.148166 -0.0926,0.203729 -0.07408,0.05556 -0.407457,0.07408 -0.314854,0.01852 -1.037165,0.01852 V 9.3942691 q 0,-0.6111864 -0.203729,-1.0371648 -0.185208,-0.4259784 -0.870478,-0.4259784 -0.314853,0 -0.685269,0.1111248 -0.370416,0.1111248 -0.703791,0.4074576 v 7.2416327 q 0,0.148166 -0.07408,0.203729 -0.05556,0.05556 -0.3704158,0.07408 -0.3148536,0.01852 -1.0556855,0.01852 z m -5.0755672,0 V 3.2453636 q 0,0 0.037042,-0.018521 0.037042,-0.037042 0.2592912,-0.037042 h 0.8889984 q 0.2407704,0 0.277812,0.037042 0.037042,0.018521 0.037042,0.018521 V 15.691341 q 0,0.148166 -0.074083,0.203729 -0.055562,0.05556 -0.370416,0.07408 -0.3148536,0.01852 -1.0556856,0.01852 z M 1.0584728,4.4306948 v -1.111248 q 0,-0.2963328 0.3148536,-0.2963328 h 6.2970719 v 1.111248 q 0,0.1666872 -0.074083,0.2407704 -0.074083,0.055562 -0.2407704,0.055562 z M 0,0 V 18.520834 H 66.145835 V 0 Z M 1.0588501,1.0588501 H 65.088018 V 17.463017 H 1.0588501 Z"
         style="fill:url(#linearGradient921);stroke-width:0.26459"
         id="path4" />
    </g>
  </g>
</svg>
